Coordinates
version=1
nRows=54
nColumns=12
inDegrees=yes

Units are S.I. units (second, meters, Newtons, ...)
Angles are in degrees

endheader
time	SC_y	SC_z	SC_x	AC_y	AC_z	AC_x	GH_y	GH_z	GH_yy	EL_x	PS_y
       0.0              -29.03         -1.626          37.35           55.4          3.579         -11.06          80.36          22.45          46.79          44.23          44.72
   0.03147              -29.03         -1.625          37.35           55.4           3.58         -11.06          80.34          22.45           46.8          44.24          44.72
   0.06295              -29.02         -1.624          37.36          55.39           3.58         -11.06          80.31          22.44          46.81          44.26          44.72
   0.09442              -29.02         -1.623          37.36          55.39          3.581         -11.05          80.28          22.44          46.82          44.27          44.72
    0.1259              -29.02         -1.622          37.36          55.39          3.582         -11.05          80.25          22.44          46.83          44.29          44.73
    0.1574              -29.02         -1.621          37.36          55.39          3.582         -11.04          80.22          22.44          46.84           44.3          44.73
    0.1888              -29.02          -1.62          37.36          55.39          3.583         -11.04          80.18          22.44          46.85          44.32          44.73
    0.2203              -29.02         -1.619          37.36          55.38          3.584         -11.03          80.15          22.44          46.86          44.34          44.74
    0.2518              -29.02         -1.617          37.36          55.38          3.585         -11.03          80.11          22.43          46.87          44.36          44.74
    0.2833              -29.02         -1.616          37.36          55.38          3.585         -11.02          80.06          22.43          46.89          44.38          44.74
    0.3147              -29.01         -1.615          37.36          55.37          3.586         -11.01          80.02          22.43           46.9          44.41          44.75
    0.3462              -29.01         -1.613          37.36          55.37          3.587         -11.01          79.97          22.43          46.92          44.43          44.75
    0.3777              -29.01         -1.611          37.36          55.37          3.588          -11.0          79.92          22.42          46.94          44.46          44.76
    0.4091              -29.01          -1.61          37.36          55.36           3.59         -10.99          79.86          22.42          46.96          44.49          44.76
    0.4406              -29.01         -1.608          37.36          55.36          3.591         -10.98           79.8          22.42          46.98          44.52          44.77
    0.4721               -29.0         -1.605          37.36          55.35          3.592         -10.97          79.73          22.41           47.0          44.56          44.78
    0.5036               -29.0         -1.603          37.36          55.35          3.594         -10.96          79.65          22.41          47.03           44.6          44.78
     0.535               -29.0         -1.601          37.36          55.34          3.595         -10.95          79.57           22.4          47.05          44.64          44.79
    0.5665              -28.99         -1.598          37.36          55.34          3.597         -10.94          79.49           22.4          47.08          44.68           44.8
     0.598              -28.99         -1.595          37.36          55.33          3.599         -10.92          79.39          22.39          47.11          44.73          44.81
    0.6295              -28.99         -1.591          37.36          55.32          3.601         -10.91          79.29          22.39          47.15          44.79          44.82
    0.6609              -28.98         -1.588          37.36          55.32          3.604         -10.89          79.17          22.38          47.19          44.85          44.83
    0.6924              -28.98         -1.584          37.37          55.31          3.606         -10.87          79.04          22.37          47.23          44.91          44.84
    0.7239              -28.97         -1.579          37.37           55.3          3.609         -10.85           78.9          22.36          47.28          44.99          44.85
    0.7553              -28.97         -1.574          37.37          55.29          3.612         -10.83          78.75          22.35          47.33          45.07          44.87
    0.7868              -28.96         -1.569          37.37          55.28          3.616          -10.8          78.57          22.34          47.39          45.16          44.88
    0.8183              -28.95         -1.562          37.37          55.26           3.62         -10.77          78.37          22.33          47.46          45.26           44.9
    0.8498              -28.94         -1.555          37.37          55.25          3.624         -10.74          78.15          22.32          47.53          45.37          44.92
    0.8812              -28.93         -1.547          37.38          55.23          3.629          -10.7           77.9          22.31          47.61           45.5          44.94
    0.9127              -28.92         -1.538          37.38          55.21          3.635         -10.66          77.62          22.29          47.71          45.65          44.97
    0.9442              -28.91         -1.528          37.38          55.19          3.642         -10.62           77.3          22.27          47.82          45.82           45.0
    0.9757               -28.9         -1.516          37.38          55.17          3.649         -10.56          76.92          22.25          47.94          46.01          45.03
     1.007              -28.88         -1.503          37.39          55.14          3.658          -10.5          76.49          22.23          48.09          46.23          45.07
     1.039              -28.86         -1.487          37.39           55.1          3.668         -10.43           76.0           22.2          48.25          46.49          45.12
      1.07              -28.84         -1.468           37.4          55.06           3.68         -10.34          75.41          22.16          48.45          46.79          45.17
     1.102              -28.81         -1.446           37.4          55.02          3.694         -10.24          74.73          22.12          48.68          47.15          45.24
     1.133              -28.78          -1.42          37.41          54.96           3.71         -10.12          73.91          22.08          48.96          47.57          45.31
     1.164              -28.75         -1.389          37.42           54.9           3.73         -9.976          72.93          22.02          49.28          48.08           45.4
     1.196               -28.7         -1.352          37.43          54.82          3.754         -9.803          71.75          21.95          49.68          48.69          45.51
     1.227              -28.65         -1.306          37.44          54.72          3.784         -9.591           70.3          21.87          50.17          49.44          45.65
     1.259              -28.58         -1.249          37.46           54.6           3.82         -9.329          68.51          21.77          50.77          50.37          45.81
      1.29              -28.49         -1.178          37.47          54.45          3.865         -9.003          66.29          21.64          51.52          51.52          46.02
     1.322              -28.39         -1.089           37.5          54.26          3.922         -8.592          63.48          21.48          52.46          52.97          46.28
     1.353              -28.25        -0.9753          37.53          54.02          3.994          -8.07          59.91          21.27          53.66          54.82          46.61
     1.385              -28.08        -0.8302          37.57          53.72          4.087         -7.402          55.35          21.01          55.19          57.18          47.03
     1.416              -27.86        -0.6439          37.62          53.32          4.206         -6.544          49.49          20.67          57.16          60.22          47.57
     1.448              -27.58        -0.4059          37.68          52.82          4.357         -5.448          42.01          20.24          59.67          64.09          48.26
     1.479              -27.22        -0.1067          37.76          52.19          4.548          -4.07           32.6           19.7          62.83          68.97          49.13
     1.511              -26.79         0.2579          37.86          51.42          4.781         -2.391          21.13          19.04          66.68           74.9          50.19
     1.542              -26.29         0.6805          37.97          50.52           5.05        -0.4451          7.843          18.28          71.14          81.79          51.42
     1.574              -25.74          1.138           38.1          49.56          5.342          1.662         -6.548          17.45          75.97          89.24          52.75
     1.605               -25.2          1.596          38.22          48.59          5.634           3.77         -20.94          16.63          80.81          96.69          54.08
     1.637               -24.7          2.018          38.33           47.7          5.903          5.716         -34.23          15.86          85.27          103.6          55.31
     1.668              -24.27          2.383          38.43          46.93          6.136          7.395         -45.69           15.2          89.12          109.5          56.37
